ffmpeg started on 2025-05-12 at 18:25:42
Report written to "D:\Convert\FFMetrics\reports\ssim_report-6.txt"
Log level: 32
Command line:
ffmpeg -hide_banner -nostdin -i "G:\\\xc0\xed\xe8\xec\xe5\\\xce\xed\xe3\xee\xe8\xed\xe3\xe8\\!_35_\xcb\xe5\xf2\xee_2024\\DreamCast\\\xce\xf2\xf0\xff\xe4 \xf1\xe0\xec\xee\xf3\xe1\xe8\xe9\xf6 \xe8\xe7 \xe4\xf0\xf3\xe3\xee\xe3\xee \xec\xe8\xf0\xe0\\[DC] Isekai Suicide Squad - 08_Telegram_HEVC.mkv" -i "G:\\\xc0\xed\xe8\xec\xe5\\\xce\xed\xe3\xee\xe8\xed\xe3\xe8\\!_35_\xcb\xe5\xf2\xee_2024\\DreamCast\\\xce\xf2\xf0\xff\xe4 \xf1\xe0\xec\xee\xf3\xe1\xe8\xe9\xf6 \xe8\xe7 \xe4\xf0\xf3\xe3\xee\xe3\xee \xec\xe8\xf0\xe0\\[DC] Isekai Suicide Squad - 08_Telegram.mp4" -lavfi "[0:v]settb=AVTB,setpts=PTS-STARTPTS,format=pix_fmts=yuv420p10,fps=24000/1001,scale=1920:1080:flags=bicubic[main];[1:v]settb=AVTB,setpts=PTS-STARTPTS,format=pix_fmts=yuv420p,fps=24000/1001,scale=1920:1080:flags=bicubic[ref];[main][ref]ssim=eof_action=endall:stats_file='D\\:/Convert/FFMetrics/logs/ssim_logfile-6.txt'" -f null -
Input #0, matroska,webm, from 'G:\Аниме\Онгоинги\!_35_Лето_2024\DreamCast\Отряд самоубийц из другого мира\[DC] Isekai Suicide Squad - 08_Telegram_HEVC.mkv':
  Metadata:
    COMPATIBLE_BRANDS: isomiso2avc1mp41
    MAJOR_BRAND     : isom
    MINOR_VERSION   : 512
    ENCODER         : Lavf61.7.100
  Duration: 00:24:10.67, start: -0.021000, bitrate: 1161 kb/s
  Stream #0:0: Video: hevc (Main 10), yuv420p10le(tv, bt709, progressive), 1920x1080 [SAR 1:1 DAR 16:9], 23.98 fps, 23.98 tbr, 1k tbn (default)
      Metadata:
        HANDLER_NAME    : VideoHandler
        VENDOR_ID       : [0][0][0][0]
        ENCODER         : Lavc61.19.100 libx265
        BPS             : 965313
        DURATION        : 00:24:10.573708333
        NUMBER_OF_FRAMES: 34779
        NUMBER_OF_BYTES : 175032125
        _STATISTICS_WRITING_APP: mkvpropedit v66.0.0 ('Josie') 64-bit
        _STATISTICS_WRITING_DATE_UTC: 2025-05-09 14:17:47
        _STATISTICS_TAGS: BPS DURATION NUMBER_OF_FRAMES NUMBER_OF_BYTES
  Stream #0:1: Audio: aac (LC), 48000 Hz, stereo, fltp (default)
      Metadata:
        HANDLER_NAME    : SoundHandler
        VENDOR_ID       : [0][0][0][0]
        ENCODER         : Lavc61.19.100 aac
        BPS             : 192417
        DURATION        : 00:24:10.666000000
        NUMBER_OF_FRAMES: 68001
        NUMBER_OF_BYTES : 34891635
        _STATISTICS_WRITING_APP: mkvpropedit v66.0.0 ('Josie') 64-bit
        _STATISTICS_WRITING_DATE_UTC: 2025-05-09 14:17:47
        _STATISTICS_TAGS: BPS DURATION NUMBER_OF_FRAMES NUMBER_OF_BYTES
Input #1, mov,mp4,m4a,3gp,3g2,mj2, from 'G:\Аниме\Онгоинги\!_35_Лето_2024\DreamCast\Отряд самоубийц из другого мира\[DC] Isekai Suicide Squad - 08_Telegram.mp4':
  Metadata:
    major_brand     : isom
    minor_version   : 512
    compatible_brands: isomiso2avc1mp41
    encoder         : Lavf61.1.100
  Duration: 00:24:10.64, start: 0.000000, bitrate: 3845 kb/s
  Stream #1:0[0x1](und): Video: h264 (High) (avc1 / 0x31637661), yuv420p(tv, bt709, progressive), 1920x1080 [SAR 1:1 DAR 16:9], 3697 kb/s, 23.98 fps, 23.98 tbr, 24k tbn (default)
      Metadata:
        handler_name    : VideoHandler
        vendor_id       : [0][0][0][0]
        encoder         : Lavc61.3.100 h264_qsv
  Stream #1:1[0x2](und): Audio: aac (HE-AACv2) (mp4a / 0x6134706D), 48000 Hz, stereo, fltp, 144 kb/s (default)
      Metadata:
        handler_name    : SoundHandler
        vendor_id       : [0][0][0][0]
Stream mapping:
  Stream #0:0 (hevc) -> settb:default
  Stream #1:0 (h264) -> settb:default
  ssim:default -> Stream #0:0 (wrapped_avframe)
  Stream #0:1 -> #0:1 (aac (native) -> pcm_s16le (native))
Output #0, null, to 'pipe:':
  Metadata:
    COMPATIBLE_BRANDS: isomiso2avc1mp41
    MAJOR_BRAND     : isom
    MINOR_VERSION   : 512
    encoder         : Lavf61.7.100
  Stream #0:0: Video: wrapped_avframe, yuv420p10le(tv, bt709, progressive), 1920x1080 [SAR 1:1 DAR 16:9], q=2-31, 200 kb/s, 23.98 fps, 23.98 tbn
      Metadata:
        encoder         : Lavc61.19.100 wrapped_avframe
  Stream #0:1: Audio: pcm_s16le, 48000 Hz, stereo, s16, 1536 kb/s (default)
      Metadata:
        HANDLER_NAME    : SoundHandler
        VENDOR_ID       : [0][0][0][0]
        _STATISTICS_TAGS: BPS DURATION NUMBER_OF_FRAMES NUMBER_OF_BYTES
        BPS             : 192417
        DURATION        : 00:24:10.666000000
        NUMBER_OF_FRAMES: 68001
        NUMBER_OF_BYTES : 34891635
        _STATISTICS_WRITING_APP: mkvpropedit v66.0.0 ('Josie') 64-bit
        _STATISTICS_WRITING_DATE_UTC: 2025-05-09 14:17:47
        encoder         : Lavc61.19.100 pcm_s16le
frame=  166 fps=0.0 q=-0.0 size=N/A time=00:00:06.92 bitrate=N/A speed=13.7x    frame=  362 fps=352 q=-0.0 size=N/A time=00:00:15.09 bitrate=N/A speed=14.7x    frame=  586 fps=378 q=-0.0 size=N/A time=00:00:24.44 bitrate=N/A speed=15.8x    frame=  828 fps=403 q=-0.0 size=N/A time=00:00:34.53 bitrate=N/A speed=16.8x    frame= 1088 fps=422 q=-0.0 size=N/A time=00:00:45.37 bitrate=N/A speed=17.6x    frame= 1343 fps=435 q=-0.0 size=N/A time=00:00:56.01 bitrate=N/A speed=18.1x    frame= 1610 fps=446 q=-0.0 size=N/A time=00:01:07.15 bitrate=N/A speed=18.6x    frame= 1857 fps=450 q=-0.0 size=N/A time=00:01:17.45 bitrate=N/A speed=18.8x    frame= 2102 fps=454 q=-0.0 size=N/A time=00:01:27.67 bitrate=N/A speed=18.9x    frame= 2350 fps=456 q=-0.0 size=N/A time=00:01:38.01 bitrate=N/A speed=  19x    frame= 2562 fps=452 q=-0.0 size=N/A time=00:01:46.85 bitrate=N/A speed=18.9x    frame= 2801 fps=453 q=-0.0 size=N/A time=00:01:56.82 bitrate=N/A speed=18.9x    frame= 3040 fps=454 q=-0.0 size=N/A time=00:02:06.79 bitrate=N/A speed=18.9x    frame= 3293 fps=456 q=-0.0 size=N/A time=00:02:17.34 bitrate=N/A speed=  19x    frame= 3487 fps=451 q=-0.0 size=N/A time=00:02:25.43 bitrate=N/A speed=18.8x    frame= 3703 fps=449 q=-0.0 size=N/A time=00:02:34.44 bitrate=N/A speed=18.7x    frame= 3909 fps=446 q=-0.0 size=N/A time=00:02:43.03 bitrate=N/A speed=18.6x    frame= 4135 fps=446 q=-0.0 size=N/A time=00:02:52.46 bitrate=N/A speed=18.6x    frame= 4366 fps=446 q=-0.0 size=N/A time=00:03:02.09 bitrate=N/A speed=18.6x    frame= 4612 fps=447 q=-0.0 size=N/A time=00:03:12.35 bitrate=N/A speed=18.7x    frame= 4845 fps=448 q=-0.0 size=N/A time=00:03:22.07 bitrate=N/A speed=18.7x    frame= 5055 fps=446 q=-0.0 size=N/A time=00:03:30.83 bitrate=N/A speed=18.6x    frame= 5286 fps=446 q=-0.0 size=N/A time=00:03:40.47 bitrate=N/A speed=18.6x    frame= 5508 fps=445 q=-0.0 size=N/A time=00:03:49.72 bitrate=N/A speed=18.5x    frame= 5734 fps=445 q=-0.0 size=N/A time=00:03:59.15 bitrate=N/A speed=18.5x    frame= 5981 fps=446 q=-0.0 size=N/A time=00:04:09.45 bitrate=N/A speed=18.6x    frame= 6240 fps=448 q=-0.0 size=N/A time=00:04:20.26 bitrate=N/A speed=18.7x    frame= 6479 fps=448 q=-0.0 size=N/A time=00:04:30.22 bitrate=N/A speed=18.7x    frame= 6736 fps=450 q=-0.0 size=N/A time=00:04:40.94 bitrate=N/A speed=18.8x    frame= 6984 fps=451 q=-0.0 size=N/A time=00:04:51.29 bitrate=N/A speed=18.8x    frame= 7243 fps=453 q=-0.0 size=N/A time=00:05:02.09 bitrate=N/A speed=18.9x    frame= 7484 fps=453 q=-0.0 size=N/A time=00:05:12.14 bitrate=N/A speed=18.9x    frame= 7741 fps=455 q=-0.0 size=N/A time=00:05:22.86 bitrate=N/A speed=  19x    frame= 7987 fps=455 q=-0.0 size=N/A time=00:05:33.12 bitrate=N/A speed=  19x    frame= 8227 fps=456 q=-0.0 size=N/A time=00:05:43.13 bitrate=N/A speed=  19x    frame= 8483 fps=457 q=-0.0 size=N/A time=00:05:53.81 bitrate=N/A speed=19.1x    frame= 8723 fps=457 q=-0.0 size=N/A time=00:06:03.82 bitrate=N/A speed=19.1x    frame= 8964 fps=457 q=-0.0 size=N/A time=00:06:13.87 bitrate=N/A speed=19.1x    frame= 9186 fps=457 q=-0.0 size=N/A time=00:06:23.13 bitrate=N/A speed=  19x    frame= 9406 fps=456 q=-0.0 size=N/A time=00:06:32.30 bitrate=N/A speed=  19x    frame= 9669 fps=457 q=-0.0 size=N/A time=00:06:43.27 bitrate=N/A speed=19.1x    frame= 9895 fps=457 q=-0.0 size=N/A time=00:06:52.70 bitrate=N/A speed=  19x    frame=10122 fps=456 q=-0.0 size=N/A time=00:07:02.17 bitrate=N/A speed=  19x    frame=10389 fps=457 q=-0.0 size=N/A time=00:07:13.30 bitrate=N/A speed=19.1x    frame=10618 fps=457 q=-0.0 size=N/A time=00:07:22.85 bitrate=N/A speed=19.1x    frame=10877 fps=458 q=-0.0 size=N/A time=00:07:33.66 bitrate=N/A speed=19.1x    frame=11111 fps=458 q=-0.0 size=N/A time=00:07:43.42 bitrate=N/A speed=19.1x    frame=11353 fps=458 q=-0.0 size=N/A time=00:07:53.51 bitrate=N/A speed=19.1x    frame=11566 fps=457 q=-0.0 size=N/A time=00:08:02.39 bitrate=N/A speed=19.1x    frame=11823 fps=458 q=-0.0 size=N/A time=00:08:13.11 bitrate=N/A speed=19.1x    frame=12075 fps=459 q=-0.0 size=N/A time=00:08:23.62 bitrate=N/A speed=19.1x    frame=12336 fps=459 q=-0.0 size=N/A time=00:08:34.51 bitrate=N/A speed=19.2x    frame=12586 fps=460 q=-0.0 size=N/A time=00:08:44.94 bitrate=N/A speed=19.2x    frame=12831 fps=460 q=-0.0 size=N/A time=00:08:55.15 bitrate=N/A speed=19.2x    frame=13079 fps=461 q=-0.0 size=N/A time=00:09:05.50 bitrate=N/A speed=19.2x    frame=13299 fps=460 q=-0.0 size=N/A time=00:09:14.67 bitrate=N/A speed=19.2x    frame=13535 fps=460 q=-0.0 size=N/A time=00:09:24.52 bitrate=N/A speed=19.2x    frame=13786 fps=461 q=-0.0 size=N/A time=00:09:34.99 bitrate=N/A speed=19.2x    frame=14036 fps=461 q=-0.0 size=N/A time=00:09:45.41 bitrate=N/A speed=19.2x    frame=14279 fps=461 q=-0.0 size=N/A time=00:09:55.55 bitrate=N/A speed=19.2x    frame=14515 fps=461 q=-0.0 size=N/A time=00:10:05.39 bitrate=N/A speed=19.2x    frame=14756 fps=461 q=-0.0 size=N/A time=00:10:15.44 bitrate=N/A speed=19.2x    frame=15005 fps=461 q=-0.0 size=N/A time=00:10:25.83 bitrate=N/A speed=19.2x    frame=15251 fps=462 q=-0.0 size=N/A time=00:10:36.09 bitrate=N/A speed=19.3x    frame=15508 fps=462 q=-0.0 size=N/A time=00:10:46.81 bitrate=N/A speed=19.3x    frame=15771 fps=463 q=-0.0 size=N/A time=00:10:57.78 bitrate=N/A speed=19.3x    frame=16032 fps=463 q=-0.0 size=N/A time=00:11:08.66 bitrate=N/A speed=19.3x    frame=16267 fps=463 q=-0.0 size=N/A time=00:11:18.46 bitrate=N/A speed=19.3x    frame=16508 fps=463 q=-0.0 size=N/A time=00:11:28.52 bitrate=N/A speed=19.3x    frame=16740 fps=463 q=-0.0 size=N/A time=00:11:38.19 bitrate=N/A speed=19.3x    frame=16976 fps=463 q=-0.0 size=N/A time=00:11:48.04 bitrate=N/A speed=19.3x    frame=17222 fps=463 q=-0.0 size=N/A time=00:11:58.30 bitrate=N/A speed=19.3x    frame=17451 fps=463 q=-0.0 size=N/A time=00:12:07.85 bitrate=N/A speed=19.3x    frame=17697 fps=463 q=-0.0 size=N/A time=00:12:18.11 bitrate=N/A speed=19.3x    frame=17929 fps=463 q=-0.0 size=N/A time=00:12:27.78 bitrate=N/A speed=19.3x    frame=18160 fps=463 q=-0.0 size=N/A time=00:12:37.42 bitrate=N/A speed=19.3x    frame=18389 fps=463 q=-0.0 size=N/A time=00:12:46.97 bitrate=N/A speed=19.3x    frame=18603 fps=462 q=-0.0 size=N/A time=00:12:55.90 bitrate=N/A speed=19.3x    frame=18842 fps=462 q=-0.0 size=N/A time=00:13:05.86 bitrate=N/A speed=19.3x    frame=19076 fps=462 q=-0.0 size=N/A time=00:13:15.62 bitrate=N/A speed=19.3x    frame=19310 fps=462 q=-0.0 size=N/A time=00:13:25.38 bitrate=N/A speed=19.3x    frame=19547 fps=462 q=-0.0 size=N/A time=00:13:35.27 bitrate=N/A speed=19.3x    frame=19800 fps=462 q=-0.0 size=N/A time=00:13:45.82 bitrate=N/A speed=19.3x    frame=20040 fps=462 q=-0.0 size=N/A time=00:13:55.83 bitrate=N/A speed=19.3x    frame=20303 fps=463 q=-0.0 size=N/A time=00:14:06.80 bitrate=N/A speed=19.3x    frame=20537 fps=463 q=-0.0 size=N/A time=00:14:16.56 bitrate=N/A speed=19.3x    frame=20751 fps=462 q=-0.0 size=N/A time=00:14:25.48 bitrate=N/A speed=19.3x    frame=20990 fps=462 q=-0.0 size=N/A time=00:14:35.45 bitrate=N/A speed=19.3x    frame=21219 fps=462 q=-0.0 size=N/A time=00:14:45.00 bitrate=N/A speed=19.3x    frame=21457 fps=462 q=-0.0 size=N/A time=00:14:54.93 bitrate=N/A speed=19.3x    frame=21698 fps=462 q=-0.0 size=N/A time=00:15:04.98 bitrate=N/A speed=19.3x    frame=21945 fps=462 q=-0.0 size=N/A time=00:15:15.28 bitrate=N/A speed=19.3x    frame=22184 fps=462 q=-0.0 size=N/A time=00:15:25.25 bitrate=N/A speed=19.3x    frame=22421 fps=462 q=-0.0 size=N/A time=00:15:35.14 bitrate=N/A speed=19.3x    frame=22627 fps=462 q=-0.0 size=N/A time=00:15:43.73 bitrate=N/A speed=19.3x    frame=22870 fps=462 q=-0.0 size=N/A time=00:15:53.86 bitrate=N/A speed=19.3x    frame=23106 fps=462 q=-0.0 size=N/A time=00:16:03.71 bitrate=N/A speed=19.2x    frame=23348 fps=462 q=-0.0 size=N/A time=00:16:13.80 bitrate=N/A speed=19.3x    frame=23587 fps=462 q=-0.0 size=N/A time=00:16:23.77 bitrate=N/A speed=19.3x    frame=23836 fps=462 q=-0.0 size=N/A time=00:16:34.15 bitrate=N/A speed=19.3x    frame=24062 fps=462 q=-0.0 size=N/A time=00:16:43.58 bitrate=N/A speed=19.3x    frame=24262 fps=461 q=-0.0 size=N/A time=00:16:51.92 bitrate=N/A speed=19.2x    frame=24480 fps=461 q=-0.0 size=N/A time=00:17:01.02 bitrate=N/A speed=19.2x    frame=24707 fps=460 q=-0.0 size=N/A time=00:17:10.48 bitrate=N/A speed=19.2x    frame=24924 fps=460 q=-0.0 size=N/A time=00:17:19.53 bitrate=N/A speed=19.2x    frame=25130 fps=459 q=-0.0 size=N/A time=00:17:28.13 bitrate=N/A speed=19.2x    frame=25339 fps=459 q=-0.0 size=N/A time=00:17:36.84 bitrate=N/A speed=19.1x    frame=25553 fps=458 q=-0.0 size=N/A time=00:17:45.77 bitrate=N/A speed=19.1x    frame=25767 fps=458 q=-0.0 size=N/A time=00:17:54.69 bitrate=N/A speed=19.1x    frame=26007 fps=458 q=-0.0 size=N/A time=00:18:04.70 bitrate=N/A speed=19.1x    frame=26253 fps=458 q=-0.0 size=N/A time=00:18:14.96 bitrate=N/A speed=19.1x    frame=26495 fps=458 q=-0.0 size=N/A time=00:18:25.06 bitrate=N/A speed=19.1x    frame=26756 fps=459 q=-0.0 size=N/A time=00:18:35.94 bitrate=N/A speed=19.1x    frame=26982 fps=459 q=-0.0 size=N/A time=00:18:45.37 bitrate=N/A speed=19.1x    frame=27221 fps=459 q=-0.0 size=N/A time=00:18:55.34 bitrate=N/A speed=19.1x    frame=27454 fps=459 q=-0.0 size=N/A time=00:19:05.06 bitrate=N/A speed=19.1x    frame=27709 fps=459 q=-0.0 size=N/A time=00:19:15.69 bitrate=N/A speed=19.1x    frame=27956 fps=459 q=-0.0 size=N/A time=00:19:25.99 bitrate=N/A speed=19.2x    frame=28188 fps=459 q=-0.0 size=N/A time=00:19:35.67 bitrate=N/A speed=19.1x    frame=28424 fps=459 q=-0.0 size=N/A time=00:19:45.51 bitrate=N/A speed=19.1x    frame=28672 fps=459 q=-0.0 size=N/A time=00:19:55.90 bitrate=N/A speed=19.2x    frame=28942 fps=460 q=-0.0 size=N/A time=00:20:07.12 bitrate=N/A speed=19.2x    frame=29203 fps=460 q=-0.0 size=N/A time=00:20:18.00 bitrate=N/A speed=19.2x    frame=29442 fps=460 q=-0.0 size=N/A time=00:20:27.97 bitrate=N/A speed=19.2x    frame=29692 fps=460 q=-0.0 size=N/A time=00:20:38.40 bitrate=N/A speed=19.2x    frame=29942 fps=461 q=-0.0 size=N/A time=00:20:48.83 bitrate=N/A speed=19.2x    frame=30183 fps=461 q=-0.0 size=N/A time=00:20:58.88 bitrate=N/A speed=19.2x    frame=30430 fps=461 q=-0.0 size=N/A time=00:21:09.18 bitrate=N/A speed=19.2x    frame=30690 fps=461 q=-0.0 size=N/A time=00:21:20.02 bitrate=N/A speed=19.2x    frame=30942 fps=461 q=-0.0 size=N/A time=00:21:30.53 bitrate=N/A speed=19.2x    frame=31189 fps=461 q=-0.0 size=N/A time=00:21:40.84 bitrate=N/A speed=19.2x    frame=31435 fps=462 q=-0.0 size=N/A time=00:21:51.10 bitrate=N/A speed=19.2x    frame=31679 fps=462 q=-0.0 size=N/A time=00:22:01.27 bitrate=N/A speed=19.3x    frame=31919 fps=462 q=-0.0 size=N/A time=00:22:11.28 bitrate=N/A speed=19.3x    frame=32148 fps=462 q=-0.0 size=N/A time=00:22:20.83 bitrate=N/A speed=19.3x    frame=32382 fps=462 q=-0.0 size=N/A time=00:22:30.59 bitrate=N/A speed=19.2x    frame=32616 fps=461 q=-0.0 size=N/A time=00:22:40.35 bitrate=N/A speed=19.2x    frame=32837 fps=461 q=-0.0 size=N/A time=00:22:49.57 bitrate=N/A speed=19.2x    frame=33024 fps=460 q=-0.0 size=N/A time=00:22:57.37 bitrate=N/A speed=19.2x    frame=33178 fps=459 q=-0.0 size=N/A time=00:23:03.79 bitrate=N/A speed=19.2x    frame=33374 fps=459 q=-0.0 size=N/A time=00:23:11.97 bitrate=N/A speed=19.1x    frame=33541 fps=458 q=-0.0 size=N/A time=00:23:18.93 bitrate=N/A speed=19.1x    frame=33725 fps=457 q=-0.0 size=N/A time=00:23:26.61 bitrate=N/A speed=19.1x    frame=33927 fps=457 q=-0.0 size=N/A time=00:23:35.03 bitrate=N/A speed=  19x    frame=34094 fps=456 q=-0.0 size=N/A time=00:23:42.00 bitrate=N/A speed=  19x    frame=34294 fps=455 q=-0.0 size=N/A time=00:23:50.34 bitrate=N/A speed=  19x    frame=34504 fps=455 q=-0.0 size=N/A time=00:23:59.10 bitrate=N/A speed=  19x    frame=34723 fps=455 q=-0.0 size=N/A time=00:24:08.23 bitrate=N/A speed=  19x    [Parsed_ssim_10 @ 00000290e2a6c700] SSIM Y:0.990119 (20.052042) U:0.993351 (21.772468) V:0.993821 (22.090755) All:0.991275 (20.592214)
[out#0/null @ 00000290e26e34c0] video:14944KiB audio:272004KiB subtitle:0KiB other streams:0KiB global headers:0KiB muxing overhead: unknown
frame=34779 fps=455 q=-0.0 Lsize=N/A time=00:24:10.57 bitrate=N/A speed=  19x    
